<?xml version="1.0" encoding="utf-8"?>
<?xml-stylesheet href="../css/styles.css" type="text/css"?>
<svg version="1.1" id="Layer_1" xmlns="http://www.w3.org/2000/svg" xmlns:xlink="http://www.w3.org/1999/xlink" x="0px" y="0px" width="80%" viewBox="0 0 782.9 522.2" style="enable-background:new 0 0 782.9 522.2;" xml:space="preserve">
					<g id="_x30_Dtssn.tif">
						<g id="XMLID_92_">
							<g id="XMLID_132_">
								<path id="XMLID_152_" class="hwlogo" d="M80.1,0.9c0,33.3,0,66.7,0,100.4c-19.1-5.3-37.8-6.4-56.7,2.3c0-5.2,0-9.8,0-14.4
									c0-12.3-0.2-24.5,0.1-36.8c0.3-14.3-5.6-24.8-17.9-31.8c-0.6-0.4-1.2-0.8-2-1.3c12-3,31.2,3,47.4,14.2
									c-6.8-5.1-8.4-13.2-12.1-20.4C50.3,9.8,61.9,6.3,73.6,2.8c1.6-0.5,3.1-1.3,4.6-1.9C78.8,0.9,79.4,0.9,80.1,0.9z"/>
								<path id="XMLID_151_" class="hwlogo" d="M379.4,522.9c-22.9,0-44.6,0-67.1,0c5.8-4.5,9.2-9.6,8.6-16.5c-0.4-4.3-1.2-8.6-1.8-12.9
									c-5.5-38.8-11-77.6-16.5-116.4c-1.6-11.3-3.3-22.7-5.7-34.1c-0.8,5.4-1.7,10.8-2.5,16.3c-5.4,39-10.8,78-16.2,117
									c-1.1,7.8-2.1,15.7-3.4,23.5c-1.5,8.8-0.9,16.8,7.6,22.3c-22.4,0-44.2,0-66.1,0c-0.3-0.3-0.6-0.7-0.9-1
									c10.7-6.5,8.5-16.1,7.1-25.6c-8.4-56.9-16.8-113.7-25.1-170.6c-0.7-4.7-2.2-6.4-7.2-6.4c-16.1,0-32.3-0.6-48.4-1
									c-0.9,0-1.7-0.1-3.5-0.2c2.2-1.4,3.6-2.3,4.9-3.2c4.2-2.9,6.7-6.9,6.7-12.1c0-41.7,0-83.5,0-125.2c0-0.4-0.2-0.9-0.4-2
									c-22.9-0.8-45.9-1.5-69.4-2.3c0,51.4,0,102.3,0,154.2c-4-2.1-7.2-3.8-9-4.8c-1.1-3.3-1.1-6.1-2.5-7.2c-2.5-1.9-5.7-2.1-8.5,0.5
									c-0.8,0.8-2.7,1.1-3.8,0.7c-3.5-1.2-6.8-2.9-10.6-4.6c3.1-3.4,2.7-6.5-0.3-9.4c-2.7-2.5-8.1-3-11.3-1c-2.9,1.7-3.6,4-2.5,9
									c-9,3.1-18.3,3-28.9,2.1c2.7-1.4,4.3-2.2,5.9-3c9.9-5.2,15-13.1,14.9-24.7c-0.2-39.2-0.1-78.5,0-117.8c0-3.3-0.9-5.3-3.5-7.3
									c-9.2-7-14.6-16-13.5-28c0.8-9.4,6-16.1,13.4-21.3c13.3-9.3,28.2-10.9,43.6-8.6c7.7,1.2,15.4,3.4,22.7,6.2
									c6.4,2.5,10.9,7.6,12.8,14.5c1.6,5.7,0.5,10.7-3.5,15.1c-8.7,9.5-27.1,13.3-38.8,7.8c-2.7-1.3-5.4-3.2-7.5-5.3
									c-5.3-5.5-4.5-13.2,1.3-18c7.8-6.4,20.6-6.9,29.2-1.1c1.1,0.8,2.2,1.6,4,1.8c-1.6-1.4-2.9-3.2-4.7-4.3c-10.7-6.7-22-7.4-33.1-1.4
									c-10.7,5.8-12.3,17.1-4.2,26.2c6.2,7,14.4,10.1,23.5,11c17.3,1.6,32.5-3,44.6-16.2c1.1-1.2,3.5-1.7,5.3-1.8
									c11.4-0.2,22.9-0.1,35-0.1c0-0.9,0-2.6,0-4.2c0-23.7-0.5-47.5,0.2-71.2c0.4-16.5-5.2-28.7-20.3-36.3c17.1-0.9,32.9,2.4,47.1,13.1
									c-7.2-4.4-7.1-12.9-11.7-19.3c13.6-4.2,27.3-8.5,41.4-12.9c0,70.2,0,139.8,0,210.4c5-2.7,9.5-5,14.5-7.8
									c9.9,77.6,19.7,154.8,29.5,231.9c0.4,0,0.8,0,1.2,0.1c9.7-77,19.5-154.1,29.2-231.2c10.4,0,20.6-0.1,30.8,0.1
									c0.9,0,2.3,2,2.4,3.2c3.3,25.2,6.4,50.4,9.6,75.7c3.9,30.9,7.8,61.8,11.7,92.7c2.3,18.5,4.6,36.9,6.9,55.4
									c0.3,2.1,0.7,4.2,1.7,6.3c1.6-13.1,3.3-26.2,4.9-39.3c3.9-30.9,7.7-61.8,11.6-92.7c2-15.7,4.9-31.3,5.7-47.1
									c0.6-11-4.3-21.1-12.4-29.1c-0.9-0.9-1.9-1.6-2.8-2.5c8.4-3.2,19.8,0.6,34.6,11.6c-1.9-3.5-3.8-6.2-5-9.2
									c-1.3-3.1-2-6.4-3.1-10.4c11.8-4.3,24.2-8.9,37.4-13.8c-0.7,5.5-1.3,10.3-2,15c-9.5,63.9-19,127.8-28.5,191.7
									c-4.4,29.3-8.6,58.6-13,87.8C370.3,511.3,372.4,517.6,379.4,522.9z"/>
								<path id="XMLID_148_" class="hwlogo" d="M539.5,368.8c0,4.1,0,8.2,0,12.3c-0.5,0.2-0.9,0.5-1.4,0.7c-0.9-1.4-1.6-2.9-2.7-4
									c-0.9-0.9-2.1-1.7-3.3-1.8c-1.9-0.2-3.9,0.2-6.2,0.4c0-2.4,0.4-3.9-0.1-5c-0.5-1.1-1.8-2.4-2.8-2.5c-1.1-0.1-3.3,1-3.3,1.7
									c-0.6,7.9-7,4.9-11.5,6c8.1-5.9,7.8-14.4,7.7-22.8c-0.1-40.5-0.1-81,0-121.4c0-7.6-1-14.5-7.9-19.3c0.2-0.4,0.4-0.9,0.6-1.3
									c5.1,1.2,10.1,2.4,15.6,3.7c-0.4-2.1-0.9-4.5-1.4-7.3c5.1-2.4,10.4-4.9,16.5-7.8c0,9.1,0,17.3,0,25.7c0.8-0.2,1.1-0.2,1.1-0.2
									c3.3-13.9,13.3-20.3,29.4-20.1c5,0.1,9.9-0.3,14.9-0.2c15.8,0.3,24.9,8.3,25.6,24.1c0.7,15.9,0.2,31.9,0.2,49.3
									c-3.5-4.2-6.3-7.6-9.2-11.2c2.6-3,4.6-6.2,1.1-9.8c-3.1-3.3-6.1-1.4-9,0.5c-1.1-1.4-2-2.4-2.3-2.8c0.8-3.7,1.5-6.9,2.2-10
									c-0.6-0.2-1.1-0.4-1.7-0.6c-0.2,5.9-3.3,9.1-8.8,9.9c-4.2,0.6-8.4,0.9-11.3-4c2-0.5,3.7-0.9,5.4-1.4c4.9-1.4,8.5-4.4,10.1-9.4
									c2.3-7.4-1.7-13.1-9.4-13.4c-11.4-0.4-14.3,2.5-14.3,14c0,8.5,0.2,17.1-0.1,25.6c-0.1,4.6,1.6,7.8,5.5,9.9
									c9.7,5.2,19.3,10.6,29.2,15.4c9.6,4.6,13.5,11.7,13,22.3c-0.6,12.8,0,25.7-0.2,38.6c-0.2,19.3-9.8,28.8-29,29.1
									c-5.7,0.1-11.5,0-17.2,0.5C553.2,383.2,545,379.4,539.5,368.8z M539.7,353.7c0.3,0.1,0.6,0.1,0.8,0.2c0.4-0.8,0.7-1.6,1.1-2.4
									c2.9-5.7,8.2-8.7,13.5-7.8c5.1,0.9,9.8,6,10.4,11.8c0.5,4.1-1.1,7.9-4.9,9.1c-2.7,0.9-6.5,0.5-9-0.8c-3.5-1.8-4-5.6-2.7-9.4
									c0.3-0.8,0.6-1.6,1-2.8c-4.8,4.5-4.9,11-0.5,15.2c4.6,4.4,13.2,4.2,16.4-1.4c2.7-4.6,6.1-4.8,10.3-4.8
									c8.3-0.2,11.1-3.1,11.2-11.4c0.1-9.3-0.1-18.6,0.1-27.9c0.1-4.9-1.6-8.3-5.9-10.7c-8.3-4.5-16.6-9.1-24.9-13.5
									c-6.7-3.6-14-6.7-17-14.8C539.7,306.1,539.7,329.9,539.7,353.7z"/>
								<path id="XMLID_145_" class="hwlogo" d="M223.2,30.5c5.5-1.3,12-2.4,18.1-4.3c3.5-1.1,7.5-2.7,9.6-5.4c3.6-4.6,7.7-4.4,12.8-4.4
									c6.6,0,11.5,1.5,17.1,5.5c6.4,4.6,15,6,22.7,8.7c1.3,0.5,2.7,0.6,3,0.7c-0.8,5.2-2.2,9.9-2.2,14.7c-0.2,38,0,76-0.1,114
									c0,3.9-0.3,7.8-0.9,11.6c-1.9,11.3-9,18.9-20.4,19.7c-11.4,0.8-23,0.8-34.4-0.3c-15.1-1.6-22.5-10.7-23.1-26.5
									c-0.3-7-0.1-14-0.1-20.9c0-32.6,0.1-65.1-0.1-97.7C225.2,40.8,223.9,35.7,223.2,30.5z M248.6,105.1c0,18,0,36,0,53.9
									c0,7.2,2.9,10.9,9,11.3c5.1,0.3,10.2,0.3,15.3,0.2c4.3-0.1,6.9-2.6,7.5-6.8c0.3-2.1,0.5-4.3,0.5-6.5c0-34.3,0-68.5,0-102.8
									c0-1.4,0-2.8-0.1-4.2c-0.7-6.2-3.8-9.1-10-9.4c-3.2-0.2-6.5-0.1-9.8-0.1c-9.8-0.1-12.5,2.6-12.5,12.3
									C248.6,70.4,248.6,87.8,248.6,105.1z"/>
								<path id="XMLID_144_" class="hwlogo" d="M447.1,383.4c-2.2-4.4-5.2-7.1-10.2-6.1c-0.4,0.1-1.2-2.4-2-3.7c-0.8-1.3-1.5-3.2-2.8-3.7
									c-0.8-0.4-3.6,1.1-3.6,1.7c-0.1,6.2-4.9,5.2-8.5,5.8c-0.7,0.1-1.5,0.1-2.3,0.1c-0.4-0.4-0.8-0.9-1.2-1.3c0.9-0.4,2-0.6,2.7-1.2
									c3.5-2.9,5.4-6.7,5.5-11.3c0-22.8,0.1-45.6,0-68.4c0-1.5-0.9-3.2-1.9-4.4c-6.7-8.2-6.8-19-0.1-26.3c6.9-7.5,20.6-9.2,28.5-3.5
									c4.5,3.2,6.4,9.6,4.2,14.5c-2.3,5.2-8.8,8.9-14.1,7.8c-4.8-0.9-8-5.3-7.2-9.8c0.8-4.6,5.2-7.7,9.9-7.2c1,0.1,2,0.4,3.7,0.7
									c-4.8-3.7-9.7-3.7-13.6-0.5c-4,3.3-5.1,8.6-2.7,13.5c3.2,6.5,11.2,9.1,18.9,5.7c2.9-1.3,5.9-3.2,7.7-5.7c2.6-3.7,5.6-4.7,9.8-4.4
									c3,0.2,6.1,0,9.7,0c0-6.5,0-12.4,0-18.2c0-8.2-0.1-16.4,0-24.7c0.1-7.5-1-14.5-8.4-19.7c7-1.2,12.3,1,17.6,4.7
									c-0.9-3.2-1.7-6-2.7-9.2c5.3-2.5,10.7-5,16.7-7.8c0,2.5,0,4.3,0,6.1c0,52.1-0.1,104.2,0.1,156.3c0,4.4,1.5,8.7,2.3,13.2
									c-8.9,0-19.1,0-28.1,0c0.8-4.3,2.2-8.8,2.3-13.4c0.3-20.2,0.1-40.3,0.1-60.5c0-1.7,0-3.4,0-5.7c-6.8,0-13.3,0-19.7,0
									c-1.7,0-3.4,0.2-5.1,0c-3.6-0.4-4.5,1.2-4.4,4.5c0.1,16.4,0.1,32.9,0.1,49.3c0,10.5,0,21,0,31.5
									C447.9,382.7,447.5,383.1,447.1,383.4z"/>
								<path id="XMLID_143_" class="hwlogo" d="M725,370.3c5.8-5.4,6.3-12.1,7-19.3c3.4-36-5.8-70-15.5-104c-2.3-8-3.9-16.3-6.5-24.2
									c-1.6-5.2-4.4-10-6.7-15.2c5.3-1,10.6,0.8,16,4.9c-1.1-3.5-2-6.3-3-9.6c2.9-2.3,5.9-4.8,9.7-7.8c3,12.8,5.8,25,8.6,37.1
									c2.8,12.1,5.8,24.2,8.6,36.2c0.4,0,0.8-0.1,1.2-0.1c3.2-15.1,6.9-30.1,9.3-45.3c1-6.1-2.8-11.9-8-16.8c6.7-1.6,12,0.5,17.3,4.2
									c-1-3.3-1.9-6.1-2.8-9.2c7.4-2.8,14.8-5.6,22.9-8.6c-0.4,2-0.5,3.4-0.9,4.8c-8.6,34.4-17.2,68.8-25.8,103.2c-0.7,2.7-1,5.5-1,8.2
									c-0.1,20.3,0,40.6,0,60.9c0,1.7,0,3.3,0,5c-0.4,0.2-0.9,0.4-1.3,0.6c-0.9-1.3-1.6-2.7-2.7-3.8c-0.9-0.9-2.6-2.1-3.5-1.8
									c-3.9,1.3-5,0.6-5.9-3.7c-0.3-1.3-1.7-3-3-3.4c-0.9-0.3-3.4,1.3-3.4,2.1C734.9,372.3,729.1,369.6,725,370.3z"/>
								<path id="XMLID_142_" class="hwlogo" d="M382.4,14.8c-2.7,6.6-1.1,12.6,0.2,18.8c1,4.8,0.1,9.9-0.7,15c-2.1-4.9-5.1-8-10.8-8.1
									c0.8-2.3,1.4-4,1.8-5.1c-4.5-1.6-9-3.1-14.4-4.9c0,54.5,0,107.8,0,161.1c-0.4,0.2-0.9,0.4-1.3,0.7c-0.9-1.4-1.5-3-2.7-4
									c-1-0.9-2.8-2.1-3.9-1.8c-3.5,1-5,0-5.6-3.8c-0.2-1.4-1.5-3.1-2.7-3.7c-0.9-0.4-3.6,0.8-3.7,1.5c-1.1,7.2-6.4,5.3-12.2,5.9
									c8-5.9,8.6-13.5,8.6-21.4c-0.1-42.4,0-84.7,0-127.1c0-2,0-4,0-7.4c-5.5,1.7-10,3.2-14.8,4.7c0.5,1.3,1.1,2.8,1.7,4.6
									c-4.6,1.4-9.2,2.6-9.6,9.9c-3-6.8-2.9-12.3-1.7-18.1c1.1-5.4,1.3-11.1,1.8-16.5c4.7,0,10.9,0.5,16.9-0.2c4-0.4,7.8-2.6,11.8-3.5
									c3.1-0.7,7.5-1.8,9.6-0.4c8.3,5.8,17.2,5.3,26.4,4.2C378.8,15.1,380.3,15,382.4,14.8z"/>
								<path id="XMLID_141_" class="hwlogo" d="M483,177.6c-3.2,11.9-13.3,17.5-21.5,11.5c6.6-3.5,5.8-9.6,5.8-15.5c0-43.3,0-86.5,0.1-129.8
									c0-7.3-1.4-13.9-8.6-19.2c7.6-0.7,13.2,1.4,18.5,5.7c-1.2-3.5-2.3-6.6-3.4-10c5.5-2.5,10.7-5,16.8-7.8c0,2.6,0,4.3,0,6.1
									c0,43.1,0,86.2-0.1,129.3c0,6.3-1,12.5-1.6,19.4c1,0,3,0.1,4.9,0c4.2-0.3,7.7-0.2,10.3,4.5c2.7,4.8,10.4,5.1,15,1.7
									c4.5-3.3,5.6-8.8,2.2-14.7c0,2.2,0.1,3.7,0,5.1c-0.4,4.4-3.9,7.7-8.3,7.8c-4.4,0.1-8-3.1-8.5-7.6c-0.7-6.3,3.6-12.9,9.4-14.3
									c6.5-1.6,12.5,1.9,14.9,8.7c5.3,15.2-3.9,28.8-19.9,29.7c-5,0.3-10,1.7-15,2.7c-5,1-10.1,2.8-14.5-1.3c1.9-3.4,3.9-6.2,5-9.4
									c0.7-1.8,0.3-4.2-0.2-6.3c-0.2-0.8-1.8-1.5-2.9-1.7c-0.5-0.1-1.8,1.2-1.8,1.7c0.1,1,0.9,2,1.6,2.9
									C481.4,177.3,482.2,177.3,483,177.6z"/>
								<path id="XMLID_140_" class="hwlogo" d="M415,78.7c-4.4-3.3-9-3.6-12.8-0.9c-3.9,2.8-5.5,6.6-4.6,11.3c1,5,5.6,9,10.8,9.6
									c7.4,0.9,13.5-1.8,17.8-7.8c1.9-2.7,3.9-3.5,6.9-3.3c4.2,0.2,8.4,0,13,0c0,7.1,0,13.9,0,21.1c-10,0-19.9,0-30.3,0
									c-0.1,2-0.3,3.6-0.3,5.2c0,11.9,0.2,23.9-0.1,35.8c-0.1,5.8-1,11.6-1.6,18c2.6,0,6,0.2,9.3,0c3.3-0.2,5.5,0.5,7.4,3.8
									c2.9,5.2,10.8,6.4,15.6,3c5.2-3.6,6.2-9.6,2.1-15.6c0.3,1.9,0.5,3.1,0.6,4.3c0.3,5.1-3.3,9-8.3,9.2c-5,0.1-8.9-3.7-8.9-8.7
									c0-6.4,4.9-12.4,10.9-13.4c5.9-0.9,11.8,2.9,13.7,9.4c5.5,18.1-7.1,30.2-20.8,29.4c-5.5-0.3-11.2,1.5-16.8,2.6
									c-5,0.9-9.9,2.5-14.2-1.7c1.8-3,3.8-5.6,5-8.6c0.7-1.9,0.5-4.3,0.2-6.4c-0.1-0.9-1.6-1.9-2.6-2.2c-0.7-0.2-2.3,1-2.3,1.6
									c-0.1,1,0.7,2.1,1.4,3c0.4,0.5,1.2,0.7,1.8,1c-2.6,11.4-13.7,17.2-21.1,10.8c5.3-3,5.5-8,5.5-13.3c-0.1-22.5,0-45-0.1-67.5
									c0-2.1-0.8-4.6-2.1-6.2c-5.3-6.6-6.5-13.8-3-21.3c3.7-7.9,10.5-11.9,19.1-11.5c4.3,0.2,8.9,1.6,12.7,3.8c5,2.8,6.4,9.6,4,14.4
									c-2.7,5.5-9.8,8.9-15.2,7.2c-3.8-1.2-6.5-5.5-5.9-9.5c0.6-3.8,4.1-7,8-7.1C411.1,78.1,412.7,78.5,415,78.7z"/>
								<path id="XMLID_139_" class="hwlogo" d="M642,379.3c-0.8-1.2-1.4-2.6-2.3-3.7c-0.8-0.9-2-2-3.1-2.1c-2-0.2-4.1,0.3-6.2,0.5
									c-0.2-2.7,0-4.4-0.5-5.7c-0.4-0.9-1.9-1.8-2.9-1.8c-1.2,0.1-3.1,1.2-3.2,2c-0.5,7.6-6.4,4.6-10.8,5.6c8.3-5.8,7.2-14.3,7.2-22.5
									c0-40.8-0.1-81.6,0-122.4c0-7.2-1.2-13.6-8.1-18.5c7.5-1.4,13.2,0.9,18.5,5.5c-1.4-3.6-2.5-6.8-3.8-10.2
									c5.3-2.6,10.6-5.1,16.4-7.9c0,60.6,0,120.6,0,180.6C642.8,378.9,642.4,379.1,642,379.3z"/>
								<path id="XMLID_138_" class="hwlogo" d="M663.4,196.4c9.5,0,19.1,0,27.5,0c-7.1,25.3-14.5,51.5-21.7,77.6c-1,3.6-2.2,6.2-6.2,7.7
									c-4.4,1.6-6.9,7-6.3,11.4c0.6,4.8,3.8,8.4,8.6,9.2c1.9,0.3,4-0.3,6-1.4c-0.6-0.1-1.2-0.2-1.8-0.1c-4,0.2-7.5-1.5-8.2-5.4
									c-0.5-2.8,0.3-6.5,1.9-8.9c2.3-3.3,6.4-3.4,10.2-2c4.8,1.8,8.3,6.9,8.3,11.9c-0.1,4.9-3.4,9.8-8.2,11.4
									c-7.9,2.5-15.5,1.4-21.8-4.2c-6.1-5.4-7.9-12.3-5.7-20.3c6.6-23.9,13.1-47.8,19.8-71.7C667.1,206.3,668.3,201.3,663.4,196.4z"/>
								<path id="XMLID_137_" class="hwlogo" d="M389.4,24.5c17.6-1.1,23.9-3.4,30.7-11.1c9.8,6.8,20.8,4.5,31.9,3.8c-2.4,6.2-1.9,12.2,0.2,18.2
									c1.8,5.2,1,10.3-0.7,14.5c-3.1-2.6-6.2-5.2-10.2-8.5c0.6-1,2-2.9,3-4.9c0.7-1.2,1.2-2.7,1.2-4c0-0.5-1.5-1.1-2.3-1.7
									c-0.4,0.9-1,1.7-1.1,2.6c-0.3,1.7-0.3,3.4-0.5,5.8c-7.9-7.1-16.4-4.9-24.5-4.9c-0.6,0-1.7,2.3-1.8,3.5c-0.2,8.5-0.1,17-0.1,25.6
									c0,1.7,0,3.4,0,5.5c-8.1-1.8-15.7-2.3-22.9,3C390.5,55.8,394.6,39.9,389.4,24.5z"/>
								<path id="XMLID_136_" class="hwlogo" d="M651.4,306c7.9,4.8,15.4,5.6,23.6,3.1c7.7,20.9,15.4,41.7,23.2,63c-9.7,0-20,0-30.7,0
									c6.4-5.1,2.8-11.2,0.8-17.2C662.8,338.9,657.3,323.1,651.4,306z"/>
								<path id="XMLID_135_" class="hwlogo" d="M447.9,257.2c-8.1-1.9-15.6-2.2-23.2,3.1c0-10-0.1-18.9,0-27.8c0.1-7.3-1.2-13.9-8.2-18.8
									c7.3-1.2,12.7,1.2,18,5.2c-1.1-3.4-2-6.4-3.1-9.6c5.4-2.5,10.7-4.9,16.5-7.5C447.9,220.3,447.9,238.3,447.9,257.2z"/>
							</g>
						</g>
					</g>
				</svg>