<?xml version="1.0" encoding="utf-8"?>
<?xml-stylesheet href="../css/styles.css" type="text/css"?>
<svg version="1.1" id="Layer_1" xmlns="http://www.w3.org/2000/svg" xmlns:xlink="http://www.w3.org/1999/xlink" x="0px" y="0px" viewBox="0 0 1717 1146" style="enable-background:new 0 0 1717 1146;" xml:space="preserve">
<g>
	<g>
		<path class="hwlogo" d="M614,1147c-2.1-0.3-4.2-0.7-6.4-0.7c-33.3-0.5-66.7-1-100-1.5c-12.4-0.2-24.9-0.6-38.2-1c2-1.4,3.4-2.3,4.7-3.2
			c12.6-9.2,17.8-21.4,15.4-37c-3.6-23.7-7-47.4-10.5-71.1c-3.5-23.7-7-47.4-10.5-71.1c-3.5-23.7-7-47.4-10.5-71.1
			c-3.5-23.7-7-47.4-10.5-71.1c-3.5-23.5-6.9-47.1-10.4-70.6c-2.4-16.3-4.8-32.6-7.3-49.5c-42.6-1.2-85.1-2.3-127.7-3.5
			c0-0.3-0.1-0.6-0.1-0.9c2.6-1.4,5.3-2.7,7.8-4.3c12.2-7.2,18.4-17.5,18.3-32c-0.2-89.8-0.1-179.7-0.1-269.5c0-2,0-3.9,0-6.3
			c-51.1-1.7-101.7-3.4-152.8-5.1c0,112.6,0,225,0,338.6c-8.7-4.7-16.5-8.9-24.5-13.2c0.8-1.5,1.5-2.6,2.1-3.7
			c2.4-4.7,1.5-8.1-3.3-10.2c-3.1-1.3-6.7-2.2-10.1-2.3c-5.5-0.2-8.5,3.8-11,8.5c-10-4.4-19.9-8.8-30.1-13.3
			c1.3-1.2,2.4-2.2,3.4-3.2c2.7-2.8,3.2-6.2,1.9-9.7c-1.6-4.3-4.4-7.9-8.6-9.9c-6.9-3.2-13.9-3.2-20.7,0.1c-6.3,3-8.7,9.3-6.7,16
			c0.3,1.1,0.8,2.2,1.3,3.7c-4.8,2.8-10.2,3.5-15.5,4.4c-16.6,2.6-33.2,2.3-50.7,0.7c1.6-0.8,2.6-1.3,3.7-1.7
			c9.1-3.8,17.8-8.2,25.4-14.6c12-10.2,18.3-23,18.3-38.9c0-90.2,0-180.3,0-270.5c0-1.3-0.1-2.6-0.2-3.6
			c-5.4-4.5-10.7-8.5-15.5-13.1c-9.9-9.3-17.2-20.4-20.2-33.8c-5.7-25.9,2.6-46.9,22.9-63.4C53.4,230.6,72.4,223,93,220.4
			c29.4-3.7,58.2-0.2,86.1,9.8c9.8,3.5,18.7,8.8,25.9,16.4c6.9,7.2,11.1,15.8,12.6,25.6c1.6,10.6-1.7,19.8-9,27.5
			c-11,11.7-25,18.1-40.5,21.1c-12.4,2.3-24.9,2.6-37.1-0.9c-9.3-2.6-17.5-7.3-24.2-14.4c-11.6-12.3-9.9-29.7,3.2-40.4
			c20.4-16.7,53.4-12.9,68.9,1.7c1,0.9,2.2,1.7,3.3,2.5c0.3-0.3,0.6-0.5,0.9-0.8c-0.6-1-1.1-2.1-1.9-3c-7.6-8.4-17-14-27.9-16.6
			c-14.7-3.5-29.5-4.1-43.8,1.1c-6,2.2-11.9,5.5-16.9,9.4c-14.2,11.2-17.2,28.7-8.1,44.3c7.4,12.8,18.9,20.9,32.3,26.3
			c12.4,5,25.4,6.7,38.6,6.7c25.7-0.1,49.4-6.6,69.8-23c6.5-5.2,12.2-11.3,18.9-17.6c13.2,0.4,27.3,0.9,41.4,1.3
			c13.9,0.4,27.9,0.9,42.5,1.3c0-2.4,0-4.3,0-6.3c0-57.7-0.1-115.3,0-173c0.1-26.6-11.2-46.8-33.5-61c-4.3-2.8-8.9-5.1-13.4-7.7
			c26.7-2.6,76.4,2.7,109.5,33.5c-4.1-8.3-10.7-14.4-18.6-19.3c-0.7-10.2-2.6-19.9-12.1-26.8c31.2-9.7,61.8-19.2,92.9-28.9
			c0,154.1,0,307.5,0,462c10.9-6.1,21.1-11.7,31.7-17.6c21.9,172.1,43.6,343.7,65.4,515.2c0.3,0,0.7,0,1,0
			c21.6-171.2,43.3-342.4,64.9-513.5c24.2,0,47.9,0,72.2,0c21.7,172.1,43.3,343.7,64.9,515.3c0.3,0,0.6,0.1,0.9,0.1
			c0.4-2.4,0.8-4.8,1.1-7.3c0.4-2.6,0.7-5.3,1-7.9c2.9-23,5.8-45.9,8.6-68.9c2.5-19.8,4.9-39.7,7.4-59.5c2.5-20.2,5.1-40.3,7.6-60.5
			c2.5-19.8,4.9-39.7,7.4-59.5c2.5-20.2,5-40.3,7.6-60.5c2.5-20,5-40,7.5-60c0.4-3,0.4-6,1.1-8.9c1.4-5.9,0.5-11.6-1.2-17.2
			c-2-6.5-3.7-13.2-6.2-19.5c-5.9-15-14.3-28.2-28.1-37.5c31.5-2.9,58.7,5.3,79.6,30.7c-0.3-4.9-3.6-9.8-12.7-19.3
			c-0.5-9.2-1.4-18.6-9.3-26.5c28.4-10.4,56.3-20.7,85-31.2c-0.6,4.7-1,8.7-1.6,12.7c-5.2,34.9-10.5,69.8-15.6,104.7
			c-5.5,37-10.9,74.1-16.4,111.2c-5.1,34.7-10.4,69.5-15.6,104.2c-4.2,28.2-8.2,56.3-12.4,84.5c-4.2,28.2-8.4,56.3-12.6,84.5
			c-4.2,28.2-8.2,56.3-12.4,84.5c-3.2,21.4-6.3,42.8-9.6,64.2c-2.2,14.5,2.8,26.1,13.8,35.4c1.4,1.1,2.6,2.4,4,3.6
			c-49.7,0-99.3,0-149,0c0.8-0.6,1.5-1.3,2.3-1.9c14.1-9.5,20-22.5,17.2-39.5c-2.4-14.8-4.2-29.6-6.3-44.5
			c-3.2-22.6-6.4-45.1-9.6-67.7c-3.1-22.2-6.3-44.5-9.4-66.7c-3.2-22.4-6.4-44.8-9.5-67.2c-3.2-22.2-6.3-44.5-9.5-66.7
			c-2.1-14.6-4.2-29.3-6.2-43.9c-1.2,2-1.6,4-1.9,6.1c-1.2,8.4-2.3,16.8-3.5,25.2c-3.2,22.9-6.4,45.8-9.6,68.7
			c-3.1,22.6-6.3,45.2-9.4,67.7c-3.2,22.7-6.4,45.5-9.5,68.2c-2.9,20.4-5.7,40.9-8.5,61.3c-2.8,20.3-5.8,40.5-8.4,60.8
			c-2,15.3,3.8,27.3,16.1,36.4c1.4,1.1,2.7,2.4,4,3.6C618.7,1147,616.3,1147,614,1147z"/>
		<path class="hwlogo" d="M1718,427c-0.5,1.4-1.2,2.7-1.6,4.1c-19.6,78.2-39.3,156.5-58.8,234.8c-0.6,2.2-0.6,4.6-0.6,6.9c0,48.3,0,96.7,0,145
			c0,1.8,0,3.6,0,6.2c-3.5-2.2-6.4-4-9.1-5.7c0.2-2.6,0.3-4.8,0.4-6.7c-5.6-3.6-6.9-3.3-10.7,2.5c-3.7-1.8-7.5-3.7-11-5.4
			c0.4-2.7,1.3-5.2,1-7.4c-0.2-1.8-1.6-3.6-2.9-5c-1.9-2-5.9-2.2-8.4-0.4c-4.1,2.9-4.9,6.9-3.3,11.9c-8,4.8-16.7,5.4-26.8,5.4
			c1.5-1.2,2-1.7,2.7-2.2c11.1-8.1,16.1-19.3,16.2-32.7c0.2-27.8-0.4-55.7,0.3-83.5c0.4-17-2.1-33.3-6.5-49.7
			c-13.7-50.7-26.9-101.6-40.3-152.4c-1.7-6.4-3.5-12.9-5.8-19c-2.9-7.6-7.8-13.9-14.7-18.8c7.7-1.1,15.3-1,22.9,1.2
			c7.7,2.2,13.9,6.7,20.2,12.7c-0.5-4.7-3.9-6.5-5.3-9.3c-1.5-4.8-3.1-9.6-4.9-15.1c6.5-5.3,13.7-11.1,21.5-17.4
			c12.9,55,25.7,109.5,38.4,163.9c0.4,0,0.8,0,1.2,0c1-4.2,2-8.3,2.9-12.5c6.2-29.3,12.4-58.6,18.5-87.9c0.5-2.2,0.4-4.7-0.1-6.8
			c-1.2-4.8-2.6-9.6-4.5-14.2c-3-7.3-7.6-13.5-14.2-18.3c16.6-2.4,31.1,1.2,42.8,13.9c-0.5-3.5-0.5-3.5-4.9-8.3
			c-2-6.1-3.5-10.7-5.1-15.7c0.1,0,0.8-0.5,1.5-0.7c15.6-5.9,31.1-11.8,46.7-17.6c0.8-0.3,1.6-0.3,2.4-0.4
			C1718,423.7,1718,425.3,1718,427z"/>
		<path class="hwlogo" d="M175,1c0,73.5,0,146.9,0,220.7c-42.2-12-83.8-14.4-124.9,5c0-2.3,0-4.1,0-5.9c0-36.2-0.4-72.3,0.1-108.5
			C50.7,80.2,36.1,57.8,8.5,43C6.7,42,5,41.1,3.3,39.8c19.6-0.6,38.9,1.1,57.8,6.8c19,5.7,35.8,15.1,50.6,28.4
			c-3.6-8.5-10-14.4-17.6-19.4c-0.7-10.2-2.5-19.9-12.2-26.9c10.1-3,19.5-5.8,28.8-8.5c19.3-5.7,38.6-11.4,57.9-17.1
			c1.5-0.5,3-1.3,4.4-1.9C173.7,1,174.3,1,175,1z"/>
		<path class="hwlogo" d="M1112.8,465.7c17.1-2.1,31.9,2.4,43.5,15.7c0.3-0.3,0.5-0.6,0.8-0.9c-2.3-3.1-4.6-6.3-6.7-9.2c-1.5-5-2.9-9.8-4.5-15.3
			c11.7-5.5,24.1-11.3,37.2-17.5c0,23.4,0,46.1,0,69.8c1.5-7,2.4-12.8,4-18.5c6.1-21.6,20.8-33.8,42.6-37.8
			c4.7-0.9,9.6-1.5,14.4-1.6c14.3-0.3,28.7-0.6,43-0.4c5.3,0.1,10.6,1.2,15.7,2.6c19.1,5.3,29.9,18.6,34.1,37.4
			c1.8,7.9,2.6,16.2,2.7,24.3c0.3,31.3,0.1,62.7,0.1,94c0,0.8-0.1,1.6-0.2,3.5c-7.4-9-14.1-17.1-21-25.5c3.3-4,8.1-7.7,6.7-13.6
			c-0.7-2.9-2.5-5.9-4.5-8.1c-4.8-5.2-9.7-4.5-19.1,2c-2.3-2.9-4.7-5.8-7.2-8.9c4.8-4.7,8.4-9.7,6.3-16.7c-1-3.3-2.2-6.3-6.9-7.4
			c1.4,1.7,2.4,2.8,3.4,4.1c0.7,7.7-2,13.9-8.9,17.5c-7.2,3.8-15,5.4-23.2,3.6c-5.6-1.2-9.1-4-12.3-10.2c1.9-0.2,3.6-0.5,5.4-0.7
			c9.6-1.2,18-4.6,24.2-12.5c6.3-8,7.5-16.8,4.5-26.4c-2.3-7.1-7.5-11.3-14.6-11.9c-7.1-0.6-14.3-0.3-21.4,0.6
			c-8.3,1.1-13.1,6.8-14.7,15c-0.5,2.6-0.9,5.3-0.9,7.9c-0.1,21.3-0.1,42.7,0,64c0,2.6,0.5,5.3,0.8,7.9c0.5,3.3,2.1,6,4.8,7.8
			c5,3.3,9.9,6.8,15.1,9.6c18.9,10.1,38,20,57,30c3.4,1.8,6.6,4,9.8,6c10.6,6.6,16.2,16,16.3,28.5c0.2,10.7,0.6,21.3,0.5,32
			c-0.1,24.5,0,49-0.7,73.5c-0.2,7.2-2,14.6-4.3,21.4c-6.4,18.6-20.3,29.2-39.2,33.2c-6.2,1.3-12.5,1.9-18.8,2.1
			c-16.3,0.6-32.6,0.9-49,1.1c-20.3,0.2-36.6-11.9-42.4-31.4c-0.5-1.7-1-3.4-2.2-5.1c0,12.1,0,24.1,0,37.2c-3.6-2.4-6.5-4.3-9.3-6.1
			c0.3-2.3,0.5-4.4,0.8-6.2c-4.9-4.3-6.6-4-11.2,1.8c-3.7-2-7.5-3.9-11-5.8c0.5-2.7,1.5-5.1,1.3-7.4c-0.1-1.6-1.3-3.4-2.5-4.7
			c-2.1-2.4-5.3-2.7-8.3-1.3c-3.9,1.8-5,5.2-4.1,12.4c-8,4.2-16.7,4.7-26.4,4.5c1.4-1.2,2.2-1.9,3.1-2.5c9.9-7.1,14.6-17,15.7-28.9
			c0.3-2.8,0.2-5.7,0.2-8.5c0-93.7,0-187.3-0.1-281c0-5.5-0.4-11-1.6-16.3C1127.4,478.8,1121.3,471.4,1112.8,465.7z M1247.3,791.1
			c7.7-0.3,15.2-0.5,22.6-1c9.4-0.6,15.5-5.8,17.2-15.1c0.8-4.7,0.9-9.6,0.9-14.4c0.1-19.8,0-39.6,0.1-59.5c0-8-2.5-14.3-9.7-18.3
			c-4.1-2.3-7.9-4.9-12-7.2c-17.1-9.3-34.3-18.3-51.4-27.7c-5.7-3.1-11.2-6.5-16.6-10.1c-5.6-3.7-9.4-9-11.3-15.4
			c-1.5-4.8-2.5-9.8-3.8-14.8c0,59.3,0,118.6,0,176.9c1.8-5.2,3.4-11.3,6.1-16.9c6.7-13.8,30-22.9,44.9-3.6c3.9,5,6,10.8,6.5,17
			c1,13.1-11.8,23.7-24.4,20.5c-12.1-3.1-17.6-17.8-10.6-28.6c0.8-1.2,1.7-2.4,2.6-3.6c-8.9,4.1-11.6,16-9.4,23.7
			c2.4,8.8,10.2,16,18.9,17C1231.4,811.7,1239.2,806.8,1247.3,791.1z"/>
		<path class="hwlogo" d="M484.9,66c11.3-2,22.6-3.6,33.8-6c6-1.3,11.8-3.6,17.4-6c10-4.3,18.3-10.8,24-20.6c13.7,2.9,27.3,3.1,40.9,0.6
			c10.6,16.4,27.4,22.9,44.8,28c9.8,2.8,20,4.6,30,6.9c-7.3,6.6-8.1,15.8-8.7,24.9c-0.4,6.1,0,12.3,0,18.5c0,80.7,0,161.3,0,242
			c0,9-0.6,17.9-2.9,26.7c-5.9,23-21.7,36.4-46.8,38.9c-7.4,0.7-15,0.5-22.5,0.5c-12.5,0-25-0.1-37.5-0.6c-7-0.3-14-0.8-20.8-2.3
			c-22-4.9-35.6-18.9-40.2-40.8c-1.9-8.9-2.5-18.2-2.5-27.3c-0.2-81.5-0.1-163-0.1-244.5c0-5-0.2-10-0.4-15
			C492.7,81,491.4,72.4,484.9,66z M615.3,231.7c0-25.2,0-50.3,0-75.5c0-15.5,0.2-31-0.1-46.5c-0.2-12.1-6.8-19.6-18.8-20.5
			c-11.4-0.8-23-0.7-34.5-0.2c-8.7,0.4-14.3,6-16,14.6c-0.6,3.2-0.9,6.6-0.9,9.9c0,78,0,156,0,233.9c0,1.3,0,2.7,0,4
			c0.4,13.7,7.8,21.2,21.5,21.7c8.8,0.3,17.7,0.5,26.5,0.6c2.5,0,5-0.2,7.4-0.6c7.2-1.1,11.9-5.3,13.6-12.2c1-4,1.2-8.2,1.2-12.4
			C615.4,309.7,615.3,270.7,615.3,231.7z"/>
		<path class="hwlogo" d="M983.1,651.7c0,63.3,0,125.9,0,189.4c-3.7-2.4-6.7-4.4-9.6-6.2c0.3-2.4,0.6-4.5,0.9-7.3c-2.7-0.7-5-1.4-7.3-2
			c-1.5,1.9-2.5,3.2-3.8,4.9c-3.7-1.9-7.4-3.9-11.5-6c2.7-4.8,2.7-9.3-1.8-12.9c-2.5-2-5.4-1.6-8-0.2c-3.4,1.9-4.4,5.5-3.3,12
			c-7.9,4.3-16.7,4.3-25.9,3.9c1-0.8,2.1-1.7,3.2-2.4c10-7,15.3-16.5,15.3-28.8c0-50.8,0-101.7,0-152.5c0-0.5-0.1-1-0.2-1.8
			c-0.4-0.4-0.9-1.1-1.5-1.6c-13-12.1-16.7-27.2-12-43.8c4.6-16.4,16.3-26.5,32.7-30.5c10.9-2.7,21.9-1.4,32.4,2.6
			c12.3,4.6,19.5,16.3,18.2,28.6c-1.2,11.1-11.7,21.9-23.8,23.9c-3.2,0.5-6.7,0.6-9.9,0.1c-7.5-1.2-13.8-7.4-15.1-14.2
			c-1.5-8.6,1.8-16.1,9.1-20.6c6.2-3.9,14.6-3.5,20.7,1c0.9,0.6,1.7,1.3,2.6,1.9c0.2-0.2,0.5-0.5,0.7-0.7c-1.2-1.4-2.4-2.9-3.8-4.1
			c-6.8-5.7-17.2-6.7-25.4-2.5c-8.2,4.2-13.4,13.2-12.7,22.1c1,13.4,11.3,23.9,24.7,25.3c13.5,1.4,25-2.9,34.3-12.6
			c3.3-3.5,6.1-7.5,9.8-12.1c10.7,0,22.3,0,34.6,0c0-2.5,0-4.3,0-6.1c0-30.8,0-61.7-0.1-92.5c0-4.5-0.3-9-1.2-13.4
			c-2.1-11.1-6.4-17.1-18.1-26.1c8.6-1,16.5-0.3,24.2,2.3c7.7,2.6,14,7.3,19.6,13.2c0.3-0.3,0.6-0.5,0.9-0.8
			c-2.2-2.9-4.5-5.9-6.3-8.3c-1.6-5.4-3.1-10.2-4.7-15.6c11.7-5.5,24-11.2,37.2-17.3c0,2.9,0,5,0,7c0,117.2,0,234.3,0,351.5
			c0,1.5,0.1,3,0,4.5c-0.4,9.2,1.9,17.2,10.3,22.9c-24,0.4-48,0.7-72,1.1c0-0.4-0.1-0.9,0-1c7.9-5.5,10.3-13.3,10.3-22.5
			c-0.1-48.7-0.1-97.3-0.1-146c0-2,0-3.9,0-5.8C1025.3,651.7,1004.4,651.7,983.1,651.7z"/>
		<path class="hwlogo" d="M734.1,67.9c-10.9-0.1-20.6,1.1-27.9,10.2c-1.8-2.2-3.6-4.2-5.3-6.3c1-3.3,1.9-6.6,3-10.4c-2.5-0.8-4.2-1.4-6.6-2.2
			c-1.3,3.4-2.4,6.2-3.6,9.3c5.7,5.3,11.3,10.4,12.1,18.9c-5.4,0.6-10.8,1.5-15.1,5.3c-4.4,4-5.8,9.2-6.2,15.8
			c-3.3-6.8-4.9-13.1-5.6-19.7c-0.8-7.5-0.2-15,2.6-22.1c3.3-8.3,4.2-16.8,2.4-25.5c-0.8-3.7-1.9-7.3-2.9-11.3
			c1.3,0.2,3,0.4,4.6,0.6c14.9,2.1,29.8,3.2,44.8,0.5c8.6-1.6,14.1-4.1,21.1-10c5.3,0,10.8,0,16.4,0c9.7,9.7,22,12.5,35.1,13
			c10.4,0.4,20.6-0.7,30.8-2.6c1.4-0.3,2.9-0.3,4.1-0.5c-1,5.3-2.3,10.3-3,15.5c-1.1,7.6,0.6,14.9,3.2,22
			c4.9,13.5,2.7,26.5-2.7,39.7c-1.5-13.1-8.9-19.5-21.9-19.8c1-8.4,5.8-13.7,11.5-18c0.1-4.3-0.5-7.7-3.8-10
			c-6.2,1.2-6.5,2.7-2.4,11.6c-1.7,2.2-3.6,4.5-5.5,6.9c-6.9-9.2-16.8-10.5-27.6-10.7c0,117.8,0,235.2,0,353.9
			c-3.8-2.5-6.7-4.4-9.5-6.2c0.3-2.4,0.6-4.5,1-7.4c-2.7-0.8-5.2-1.4-7.6-2.1c-1.5,2-2.5,3.3-3.7,4.8c-3.8-2.1-7.5-4.1-11.7-6.4
			c3.2-4.1,2.9-8.1-0.4-11.7c-2.1-2.3-6-3-8.7-1.5c-4.8,2.7-4.7,7.2-3.9,12.1c-8.1,4.4-16.9,4.4-26.4,4.2c1-0.8,1.4-1.4,2-1.7
			c11.3-7.3,16.2-18.1,17.1-31.1c0.2-2.3,0.1-4.7,0.1-7c0-98,0-196,0-293.9C734.1,72.2,734.1,70.4,734.1,67.9z"/>
		<path class="hwlogo" d="M1006.1,53.4c13.9-2.8,25.9,1.3,42.9,14.8c-0.6-4.3-3.9-6.3-6.2-9.2c-0.4-2.5-0.5-5.2-1.3-7.7c-0.7-2.4-2-4.5-3.3-7.3
			c12.2-5.7,24.6-11.4,37.8-17.5c0,2.7,0,4.4,0,6.2c0,98.6,0,197.3-0.2,295.9c0,7.6-0.8,15.3-1.9,22.8c-0.7,4.8-2.7,9.5-4.3,14.5
			c9.7,0,19.6,0,29.6,0c2.6,7,6.1,12.9,12.9,16c5.4,2.5,11.2,3.2,17.1,2.1c9.8-1.8,17.6-10.6,18.6-20.9c1-9.4-3.4-18-9.8-20.5
			c1.5,3,4,6.4,5,10.3c2.8,10.5-4.9,21.6-15.2,23c-11.9,1.6-21.4-5.9-22.1-17.5c-0.8-12.8,7.5-25.8,19-30c10.1-3.7,23.5-0.2,29.6,9
			c18.5,28,5.8,65.6-26.2,74c-4.6,1.2-9.6,1.1-14.4,1.2c-10.4,0.2-20.5,1.3-30.2,5.5c-7,3-14.5,3.5-22.1,2.8
			c-4.8-0.4-9.1-2-10.9-7.2c2.5-3.1,5-6,7.2-9.1c4.2-5.9,6.3-12.5,5.2-19.8c-0.3-2.2-1.4-4.4-2.8-6.1c-1.4-1.6-3.8-2.8-5.8-1.2
			c-1.5,1.2-2.9,3.2-3.3,5.1c-0.5,2.6,1.7,4.2,3.9,5.1c1,0.4,2.3,0.4,3.5,0.5c0.1,0.4,0.5,0.9,0.4,1.3
			c-2.2,18.5-20.8,32.4-36.2,30.4c-4.3-0.5-8.1-1.8-10.7-6c0.7-0.6,1.3-1.1,1.9-1.5c7.1-4.8,10.1-11.4,10.1-20
			c-0.1-63.3,0-126.6,0-189.9c0-36.7,0.1-73.3,0.1-110c0-4.6-0.3-9.3-1.1-13.9c-1.7-9.8-6.8-17.6-15-23.3c-0.7-0.5-1.3-1-2-1.5
			C1006.1,53.8,1006.1,53.6,1006.1,53.4z"/>
		<path class="hwlogo" d="M913.4,176.9c-4.6-10.1-14.9-12.1-22.5-10.8c-9.3,1.5-17.3,9.3-19,18.3c-3.1,15.7,9.3,30.8,26.1,31.7
			c15.2,0.8,27.2-5.3,36.4-17.1c1.8-2.4,3.5-4.9,5.2-7.3c0.9-0.1,1.7-0.3,2.5-0.3c12,0,24,0,36.4,0c0,15.3,0,30.7,0,46.7
			c-22.3,0-44.5,0-67.5,0c0,2.5,0,4.5,0,6.4c0,28,0,56,0,84c0,13.2-0.2,26.3-6.9,38.9c11.9,0,23.4,0,34.5,0
			c9.1,15.7,17.8,21,30.5,18.6c9.2-1.7,17.2-9.8,18.7-19.2c1.5-9.4-2.1-19-11.7-23.8c1.5,1.7,2.2,2.7,3,3.6
			c5.5,6.2,6.3,15.1,1.9,22.2c-4.6,7.4-12.9,10.8-21.1,8.6c-7.9-2.1-13.8-9.4-14.1-17.4c-0.3-8.4,2.4-15.7,7.9-22
			c13.2-15.3,35.2-9.4,42.7,3.8c8.8,15.7,11.6,44.5-10,62.4c-7.6,6.3-16.3,9.6-26.1,9.8c-4.8,0.1-9.7,0-14.5,0.2
			c-8.7,0.3-17.2,1.1-25.3,4.7c-7.6,3.4-15.8,3.9-24,3.1c-4.6-0.5-8.8-2-10.8-7.3c1.5-1.8,3.2-3.6,4.7-5.5c5.7-7,9.3-14.7,7.6-23.9
			c-0.3-1.9-1.2-3.9-2.5-5.3c-1.6-1.8-3.8-2.7-6.3-1.4c-2.3,1.2-3.5,3.2-3.2,5.7c0.3,2.6,2.2,4.1,4.6,4.7c1.1,0.3,2.3,0,3.4,0
			c-1.3,19.9-20.9,33.2-34.8,32c-5.6-0.5-8.7-1.9-12-6.4c0.7-0.6,1.5-1.1,2.2-1.7c6.6-4.7,9.7-11,9.7-19.2c-0.1-38.3,0-76.7,0-115
			c0-16.8,0-33.6,0-51.1c-0.8-0.6-2-1.4-2.9-2.3c-12.2-12.3-15.5-27.1-10.6-43.3c4.9-16.3,16.8-26,33.3-29.9
			c10.2-2.4,20.3-1.1,30,2.4c9.2,3.3,16.1,9.4,18.8,19.2c4.1,14.6-4.7,29.1-20.2,33.3c-7.5,2-14.8,2-21.2-3.5
			c-8-6.9-9-18.6-2.1-26.4c7.4-8.5,18.8-9.4,27.1-2C912,175.6,912.7,176.3,913.4,176.9z"/>
		<path class="hwlogo" d="M1411.6,833.1c-3.6-2.3-6.5-4.2-9.2-6c0.4-2.3,0.7-4.2,0.9-5.9c-4.8-4.7-6.6-4.4-11.2,1.7c-3.8-1.9-7.6-3.9-11.4-5.8
			c2.6-5.4,2.3-9.1-0.8-12c-2.3-2.2-5.3-2.6-8.3-1.1c-3.9,1.9-5.1,5.5-4,12.4c-7.9,4.4-16.5,4.9-26.4,4.7c1.5-1.2,2.1-1.7,2.7-2.1
			c11.3-7.8,16.4-18.6,16.3-32.3c-0.2-68.5-0.1-136.9-0.1-205.4c0-27.2,0-54.3,0-81.5c0-4.5-0.3-9-1.1-13.4
			c-1.7-9.4-6.4-17.1-14.2-22.7c-1-0.7-2.1-1.5-4-3c18.1-1.8,32.8,2.5,44.4,15.7c0.3-0.3,0.5-0.6,0.8-1c-2.3-3.1-4.6-6.2-6.8-9.1
			c-1.5-5-2.9-9.9-4.5-15.2c11.8-5.7,24.1-11.7,36.9-17.9C1411.6,566.6,1411.6,699.5,1411.6,833.1z"/>
		<path class="hwlogo" d="M1452,431c23.2-0.8,45.2-1.5,67.9-2.3c-11.1,14.9-13,32.5-17.7,48.9c-12.5,43.3-24.4,86.8-36.5,130.2
			c-0.5,1.9-1.2,3.8-1.9,5.8c-1.8,0.5-3.5,1-5.3,1.5c-14.8,4.4-23.9,23.1-14.3,38c6,9.4,23.6,14.3,33.1,3.8c-1.5,0.5-2.4,0.7-3.2,1
			c-10.6,3.9-21.3-0.8-24.8-11.1c-3.5-10.3,2.7-21.7,13.6-24.6c9.2-2.5,16.8,0.9,23.3,7.1c15.3,14.5,10,38.5-10,45.6
			c-23.5,8.3-50.4-4-59.3-27.2c-3.2-8.2-3.4-16.5-1.1-25c11.7-42.2,23.2-84.4,34.8-126.6c3.7-13.6,7.4-27.3,11.3-40.9
			c2.7-9.2,0-16.3-7.2-22.1C1454.1,432.7,1453.5,432.2,1452,431z"/>
		<path class="hwlogo" d="M850.4,52.2c15.1,0.3,29-1.2,42.5-5.2c13.5-4,20.4-8.7,27.8-18.9c0.3,0,0.8-0.1,0.9,0c10.3,8.8,22.8,10.7,35.6,10.7
			c10.6,0,21.2-1.6,31.8-2.5c0.8-0.1,1.6-0.2,2.1-0.2c-1.1,5.1-2.4,10.1-3.2,15.1c-1.3,8.1,0.7,15.8,3.3,23.5
			c4.2,12.7,3.1,26.3-3.2,39.2c-1.2-13.8-9.4-19.4-21.7-20.2c1.6-7.9,2.2-8.7,12.1-18.9c-0.9-2.6-1.9-5.6-3.2-9.3
			c-2.6,0.8-4.5,1.4-7,2.2c1.2,3.8,2.2,6.9,3.3,10.1c-1.6,2-3.4,4.1-5.3,6.4c-5.5-7.6-13.6-10-22.3-10.2
			c-10.8-0.3-21.6-0.1-32.9-0.1c0,25.8,0,51.2,0,76.8c-19.6-5-31.7-6.2-51.9,6.4c0-1.9,0-3.5,0-5.1c0-23.8,0-47.6-0.1-71.5
			c0-4.3-0.4-8.7-1.1-12.9C857.1,62.2,855.4,56.9,850.4,52.2z"/>
		<path class="hwlogo" d="M1461.4,817.8c0.9-1,1.3-1.5,1.8-1.8c8.3-6.9,10.3-15.4,6.7-25.5c-6.2-17.6-12.2-35.2-18.3-52.8
			c-7.2-20.7-14.3-41.5-21.5-62.3c-0.5-1.5-0.9-3.1-1.4-5.1c17.1,11.6,35.8,12.5,51.7,6.8c0.7,1.8,1.6,3.5,2.2,5.3
			c13.5,37.4,27,74.8,40.5,112.1c2.6,7.3,5.9,14.1,11.2,20.6C1510.3,816,1486.2,816.9,1461.4,817.8z"/>
		<path class="hwlogo" d="M982.7,564.4c-8.6-3-17.3-4.2-26.2-3.5c-9,0.7-17,3.9-25.3,9.5c0-2.7,0-4.4,0-6.2c0-19,0.1-38-0.1-57
			c0-4.8-0.3-9.7-1.1-14.4c-1.7-9.6-6.6-17.3-14.5-23.1c-0.8-0.6-1.6-1.2-2.4-1.8c-0.1-0.1-0.1-0.3-0.2-0.9
			c17.2-1.6,31.8,3.2,43.2,16.6c0.3-0.3,0.6-0.5,0.8-0.8c-2.3-3.3-4.6-6.5-6.7-9.4c-1.5-5.1-3-10-4.5-15.2
			c11.8-5.4,24.1-11.1,36.9-17C982.7,482.5,982.7,523.2,982.7,564.4z"/>
		<path class="hwlogo" d="M1552.2,929.5c2.7-0.5,4.6-0.8,7.2-1.3c2.2,16,4.3,31.9,6.5,47.7c0.3,0,0.6,0,0.9,0c1.1-8.3,2.2-16.6,3.2-25
			c0.4-3,0.8-5.9,1.1-8.9c0.6-6,0.6-6-2-10.9c1.9,0,3.7,0,5.6,0c0-0.8-0.1-1.6-0.1-2.7c2.2-1.2,4.5-2.4,7.7-4.1
			c-2.8,24-7.4,46.8-9.9,70.7c-3.2,0.6-7.3,1.4-10.8,2.1c-1.8-12.3-3.5-24.2-5.2-36.1c-0.4,0-0.8,0-1.2,0
			c-1.7,12.6-3.4,25.2-5.1,38.4c-3.2,0.7-7.2,1.6-11,2.4c-0.3-2.9-0.4-5.5-0.8-8c-2.3-15.1-4.7-30.3-7.1-45.4c-0.5-3-1.6-6-2.5-9.1
			c1.3,0,3,0,5.1,0c-0.1-1-0.2-1.9-0.3-3c1.3-1,2.8-2.1,4.9-3.6c2.2,16.1,4.4,31.7,6.5,47.2c0.3,0,0.7,0,1-0.1
			C1547.9,963.2,1550.1,946.5,1552.2,929.5z"/>
		<path class="hwlogo" d="M1259.8,1013.2c2.7-0.2,4.3-0.4,6.1-0.5c0.2-0.9,0.4-1.9,0.6-3c2.7-1.6,5.5-3.3,9.2-5.5c0,24.5,0,48.2,0,72.4
			c-2.5,0.7-5.6,1.7-9.1,2.7c0-14.8,0-29.1,0-43.5c-0.2-0.1-0.4-0.1-0.6-0.2c-2.1,10.7-4.1,21.5-6.2,32.4c-2.3,0.7-4.5,1.3-7.1,2
			c-2-9.8-4-19.2-5.9-28.6c-0.2,0-0.5,0-0.7,0c0,15,0,30,0,45.9c-2.8-1.1-5-1.9-7.5-2.9c-0.8,1-2,2.4-3.1,3.8
			c-0.4-0.2-0.7-0.3-1.1-0.5c3.3-4.6,2.6-9.7,2.6-14.7c0.1-14.8,0.2-29.7,0.1-44.5c0-2.7-0.9-5.3-1.5-8.4c0.9-0.1,2.4-0.2,4.4-0.3
			c0.1-0.8,0.3-1.9,0.5-3.1c1.9-1.3,4-2.7,6.7-4.6c2.9,13,5.7,25.5,8.5,38.1c0.4,0,0.7,0,1.1,0c1.8-8.8,3.5-17.6,5.4-26.4
			C1263,1020,1264.1,1016.4,1259.8,1013.2z"/>
		<path class="hwlogo" d="M1091.1,1118.8c-2.9-1.7-5-2.9-7.4-4.3c-0.9,0.8-2.4,2.1-3.9,3.4c2.4-4.8,1.9-9.7,1.9-14.5c0.1-15.3,0.3-30.6,0.2-45.9
			c0-3-1-6-1.5-9.3c0.9,0.1,2.5,0.2,4.2,0.4c0.1-0.9,0.3-2,0.5-3.2c1.7-1,3.4-2,5.6-3.3c3.2,10.8,6.4,21.4,9.5,31.9
			c0.3-0.1,0.7-0.1,1-0.2c-1-9,1.9-18.3-2.3-27.5c1.4,0.1,3.1,0.3,4.9,0.4c0.2-0.9,0.3-1.9,0.5-3.1c1.7-1,3.6-2,6.3-3.6
			c0,25,0,49.2,0,74c-2.7,0.4-6.1,0.8-10.1,1.3c3.3-16.6-5.2-30.2-9.5-44.9C1091.1,1086.2,1091.1,1102,1091.1,1118.8z"/>
		<path class="hwlogo" d="M1114.5,1048.3c4.4-1.5,9.2-3.2,11.9-7.8c2.2-0.3,4.4-0.6,6.5-0.9c-0.1,0.2-0.1,0.4-0.2,0.6c4,1.3,8,2.7,12.2,4.1
			c0,7.3,0,15.2,0,23.7c-1.4-0.6-2.2-1-3.2-1.5c0.1-1.5,0.2-2.8,0.3-4.7c-1.8,0-3.3,0-4.7,0c-0.3-0.8-0.5-1.4-0.7-2.1
			c-2.2,1.3-4.3,3.2-7.3,1.4c6-4,6.1-4.3,5.4-9.4c-5.2-3.3-9.9-1.4-10.2,4.5c-0.4,7-0.1,14-0.1,20.8c6.8-1.2,13.5-2.4,20.6-3.6
			c0,12.5,0,24.9,0,38.1c-7,1.1-14.3,2.5-21.7,3.2c-4.3,0.4-7.1-2.3-8-6.7c-0.3-1.8-0.3-3.6-0.3-5.5c0-14.8,0-29.7,0-44.5
			C1115,1054.9,1114.7,1051.8,1114.5,1048.3z M1125.6,1105.4c3.4-0.4,6.4-0.7,9.4-1.1c0-6.7,0-12.6,0-18.5c-3.4-3.8-5.8-4.6-9.1-2.9
			c-2.6,1.4-4,4.2-3.2,6.6c0.8,2.4,2.5,2.9,4.7,2.1c-1.2-1-2.4-2-3.5-2.9c2.5-5.9,4.8-6.2,9.3-1.4c-0.5,1.4-0.7,3.9-2,4.8
			c-2.6,1.8-5.7,2.6-8,3.6C1124,1098.5,1124.7,1101.6,1125.6,1105.4z"/>
		<path class="hwlogo" d="M1431.9,966.7c4.6-3.3,9-6.5,13.4-9.6c-0.2-0.2-0.3-0.4-0.5-0.6c2.2-0.7,4.5-1.3,6.7-2c0,0.2-0.1,0.4-0.1,0.6
			c4.5,0.7,8.9,1.5,13.1,2.2c0,15.9,0,32.2,0,48.5c0,2.2-0.1,4.3-0.3,6.5c-0.6,5.5-3.6,9.3-8.7,11.3c-4.5,1.7-9.2,3.1-13.8,4.2
			c-5.1,1.2-8-1-8.8-6.1c-0.3-2-0.4-4-0.4-6c0-13.7,0-27.3,0-41C1432.4,971.9,1432.1,969.2,1431.9,966.7z M1453.6,963.8
			c-2.3,0.5-3.6,0.8-4.9,1.2c-6,1.6-6.8,2.6-6.8,9.1c0,12.7,0,25.3,0,38c0,1.9,0.3,3.8,0.6,6.6c3-0.6,5.4-1,7.7-1.7
			c3.8-1.1,4.9-2.5,4.9-6.5c0.1-14,0.1-28,0-42C1455,967,1454.1,965.5,1453.6,963.8z"/>
		<path class="hwlogo" d="M1312.3,999.4c0,22.2,0,43.9,0,66c-3.2,1-6.6,2-10,3.1c0-8.8,0-17.3,0-26.5c-3.8,1.1-7.2,2.1-11,3.3c0,9.5,0,18.8,0,28.6
			c-2.6-1-4.6-1.8-7.1-2.7c-0.8,1-2,2.4-3.1,3.8c2.5-9.3,0-18.6,1.1-27.4c-4.1-6.6-4.1-7.9-0.4-13.7c0-8.7,0-16.8,0-25
			c3.1-2.6,6.5-5.4,10.7-8.8c2.6-0.8,6.2-1.9,10.3-3.1c1.1,0.5,2.6,1.5,4.3,1.9C1308.8,999.3,1310.6,999.2,1312.3,999.4z
			 M1302.1,1006.4c-8.1-0.6-10.7,1.6-10.7,8.3c-0.1,4.6,0,9.3,0,13.8c-1.4,0.4-2.3,0.7-3.6,1c2,0.3,3.6,0.5,5,0.7
			c2.5,2,2.4,4.1,0.9,6.3c-1.7,2.4-3.7,4.3-7.3,3c-0.2-1.4-0.5-2.8-0.8-4.8c-1.7,3.9-1.7,4.8-0.4,6.1c1.7,1.6,3.8,1.6,5.5,0.4
			c2.5-1.8,4.7-4,7.7-6.6c0.8-0.3,2.5-1,4.4-1.7C1302.4,1023.9,1303.5,1015.2,1302.1,1006.4z"/>
		<path class="hwlogo" d="M1596.3,990.6c-2.8-1.3-4.9-2.3-7.3-3.5c-1,0.9-2.3,2.1-3.6,3.4c3-8.9,0.4-17.7,1.5-26.3c-4.2-4.7-4-9.3-0.5-13
			c0-8.5,0-16.1,0-23.7c3.1-2.1,6.5-4.3,10.7-7.1c2.5-0.3,6.1-0.8,9.5-1.3c3.5,1.4,7,2.8,10.4,4.2c0,20.6,0,41.4,0,62.4
			c-3.1,0.4-6.5,0.9-10.1,1.4c0-8.5,0-16.7,0-25.3c-3.6,0.5-6.8,0.9-10.6,1.4C1596.3,972.2,1596.3,981.1,1596.3,990.6z
			 M1589.1,957.5c4.8,3.7,6.9,3.1,12.9-3.1c1.7-0.4,3.3-0.7,4.9-1.1c0-8.5,0-16.8,0-24.8c-6.2-3.5-10.8-1.2-10.9,5.1
			c-0.1,4.8,0,9.6,0,14.7c2.8,1.2,4.1,3.5,2.7,6.3c-1.4,2.7-3.8,4.1-7.5,2.7c0-1.2-0.4-2.8,0.1-3.9c0.4-1,1.9-1.5,3.1-2.4
			C1589.6,951.8,1589.1,952.4,1589.1,957.5z"/>
		<path class="hwlogo" d="M1622.7,922.6c3.2-1.9,6.5-3.9,10.7-6.4c3-0.2,7.1-0.6,12.3-1c3.7,0.9,5.9,4.4,6,8.8c0.3,8,0.3,16-0.1,24
			c-0.2,2.9-2.1,5.8-4.2,8.5c2,8.4,4,16.7,6.1,25.6c-3.3,0.3-6.7,0.5-9.2,0.7c-1.8-8.3-3.5-16.2-5.2-23.9c-2.4,0-4.2,0-6.6,0
			c0,8.8,0,17.4,0,26.8c-3-1.4-5.1-2.5-7.5-3.6c-0.8,0.7-2,1.8-3.2,2.9c2.6-8.8,0.2-17.5,1.2-25.6c-4.2-6.6-4.2-7.6-0.5-13
			C1622.7,938.2,1622.7,930.6,1622.7,922.6z M1624.6,950.8c2.8,5.1,6.6,5.9,10.5,2.8c1.3-1,2.3-2.6,3.7-3.3c3-1.3,3.9-3.5,3.9-6.3
			c0-5.2,0.1-10.3,0-15.5c0-1.6-0.7-3.1-1.1-4.9c-3.3,0-6.1,0-9.3,0c0,6.8,0,12.9,0,19.1c-1.5,0.3-2.6,0.4-4.8,0.8
			c4.6,0.5,7.7,1.3,8.2,5.5c-2.6,5-4.1,5.7-8.9,3.3c0.5-1.6,0.9-3.3,1.4-5.1c-0.2-0.1-0.4-0.3-0.6-0.4
			C1626.7,948.1,1625.7,949.4,1624.6,950.8z"/>
		<path class="hwlogo" d="M1043.8,1114.6c-3,1.1-4.7,0.1-5.2-3.4c-1.4,2.6-0.4,4.3,1.6,5.3c3.4,1.6,5.2-0.8,6.9-3c2.2-0.4,4.2-0.8,6.8-1.3
			c0-6.4,0-12.5,0-19.4c-3.5-2.1-7.4-4.7-11.5-6.6c-5.6-2.6-7.8-6.6-7.4-12.7c0.3-4.8,0-9.6,0.1-14.5c0.2-8.1,3.9-11.7,12.1-11.9
			c1.8,0,3.7-0.1,5.5-0.1c7.2,0.1,10.8,3.3,11.1,10.5c0.3,6.3,0.1,12.6,0.1,19.4c-1.3-1.1-2.2-2-3.2-2.9c0.1-1.6,0.3-3,0.4-4.9
			c-1.7-0.3-3.2-0.5-5-0.7c0.2-1.1,0.4-2.2,0.8-4.1c-2.5,3.4-5,4.7-8.5,2.7c1.8-1.3,3.9-2.2,4.8-3.8c0.9-1.6,0.7-3.9,1-5.7
			c-3.6-2.1-6.3-2.3-9.3,0.3c0,5.7,0,11.6,0,18.3c3.5,1.9,7.1,4.2,11,6c5.9,2.6,8.8,6.5,8,13.2c-0.5,4.6,0,9.3-0.1,14
			c-0.2,8.6-4,12.5-12.5,12.7c-2.8,0.1-5.7,0.1-8.5,0.2c-3.4,0-5.6-1.8-6.9-4.8c-1.4-3.3-1.2-6.5,0.9-9.5c1.5-2.1,4.2-2.4,6.2-1
			C1045.5,1108.5,1045.8,1111.1,1043.8,1114.6z"/>
		<path class="hwlogo" d="M1430,988.6c-4.8-0.7-1-4.6-3.1-6c-2-0.1-4-0.6-5.9-0.3c-1.8,0.3-3.5,1.3-5.6,1.6c2.3-3.5,7.8-5.5,4.3-11
			c-6.7-0.4-8.8,1.5-8.8,7.7c0,3.8,0,7.6,0,12.2c6.3,1.8,12.5,3.7,18.9,5.6c0,9,0.4,17.3-0.2,25.6c-0.3,4.7-3.9,8.1-8.4,9.8
			c-4,1.6-8.2,2.9-12.3,3.9c-4.2,1.1-7.2-1.4-7.4-5.7c-0.3-5.8,3.2-9.2,8.6-8.6c2.2,3.2,2.2,5.1,0,6.8c-2.3,1.8-4.2,1.2-6.3-0.7
			c0.8,1.1,1.5,2.7,2.6,3.3c2,1.1,4.4-0.6,7.3-4.7c7.3-2.9,7.3-2.9,7.4-10.9c0-3.1,0-6.3,0-10.1c-6.3-1.9-12.4-3.7-18.3-5.5
			c-0.5-1.7-1.1-2.8-1.1-3.9c0-6.8,0-13.6,0.2-20.4c0.1-3.5,1.9-6.5,4.6-8.5c5.1-3.8,11.1-5.3,17.3-5.6c3.7-0.2,5.9,2.2,6.1,6.4
			C1430.2,975.8,1430,982.1,1430,988.6z"/>
		<path class="hwlogo" d="M1183.4,1102.3c-1.5,0.6-3.3,1.3-5.1,2.1c0.4-3.5,0.9-6.4,0.9-9.4c0.1-8.8,0-17.7,0-26.8c-4-4.5-3.5-9.2-0.3-13
			c0-7.2,0-13.7,0-20.4c3.7-2,7.8-4.3,12.3-6.8c3.3-0.4,7.3-0.9,11.5-1.4c0.4,3.8,0.9,7.7,1.4,12.7c-2.8-1.8-4.6-3-7.2-4.8
			c-2,0.3-4.9,0.7-8,1.2c0,5.4,0,10.4,0,15.6c0.7,0.6,1.7,1.5,2.6,2.2c0.5,6-1.6,8.2-7.5,8c-0.4-1.3-0.9-2.8-1.5-4.6
			c-1.4,2.1-1.5,4.2,0.2,5.5c1.2,0.9,3.7,1.4,4.9,0.8c2.6-1.2,4.7-3.4,6.6-5.8c2.1-0.5,4.2-0.9,6.7-1.4c0,3,0,5.5,0,8.4
			c-3.9,1-7.7,2-12.2,3.1c0,8.1,0,16.1,0,24.5c1.3-0.2,2.8-0.5,4.4-0.7c4.7,3,5.4,3,9.3-1c-2,0.7-3.4,1.1-4.6,1.5
			c-3-1.4-2.6-3.4-1.7-5.6c1.3-3.2,2.9-4,7.2-3.7c4.2,5.1,2.7,12.5-3.4,15.4c-3.9,1.9-8,3.3-12.1,4.7
			C1186.5,1102.9,1185,1102.4,1183.4,1102.3z"/>
		<path class="hwlogo" d="M1672.8,974.5c4.4,3.9,6.1,4,9.1-0.1c-2.2,1.1-4.4,2.6-6.4,0.1c-0.6-4.2,0.9-6.8,4-7c3.1-0.3,5.4,2.3,5.5,6.3
			c0.1,4.1-2.1,7.4-5.9,8.1c-3.9,0.8-7.8,1.5-11.8,2c-1.3,0.2-2.7-0.5-4.8-0.9c-1.1,0.2-3.1,0.7-4.9,1.1c0.4-3.4,1-6.3,1-9.1
			c0.1-8,0-16,0-23.7c-3.3-5.4-4.6-7.5-0.3-12.9c0-6.6,0-12.5,0-18.6c3.6-1.2,7.7-2.7,12-4.2c3.7,0.3,7.8,0.6,11.7,0.9
			c0.2,1.9,0.4,3.9,0.6,5.9c0.1,1.8,0.2,3.6,0.4,6.3c-4.7-4.2-8.4-8.6-15.2-5.4c0,4.3,0,8.8,0,13.7c2,0.9,3.9,2.6,2.9,5.9
			c-0.8,2.6-2.7,3.4-7,2.8c-1.7-3.7-1.7-3.7,1.8-6.1c-3.5,0.1-4.9,1.2-4.9,3.8c0.1,2.6,2.7,5.1,5.5,4.4c2.7-0.7,5.2-2.4,7.5-4.3
			c2.1,0,4.2,0,6.6,0c0,2.5,0,4.7,0,7.5c-4,0.2-7.9,0.5-12.4,0.8c0,7.5,0,14.8,0,22.5C1669.3,974.2,1671,974.4,1672.8,974.5z"/>
		<path class="hwlogo" d="M1172.5,1097.3c-2.3,0.3-3.9,0.5-5.4,0.8c-2.2-2.6-1.4-4.9,0.1-7c1.7-2.4,4-2.8,6.6-1.7c3.7,5.8,1.8,12.9-4.2,15.4
			c-3.4,1.4-6.8,2.7-10.3,3.7c-1.4,0.4-3-0.1-4.8-0.2c-1.5,0.5-3.4,1.2-5.2,1.9c0.4-3.1,1.1-5.7,1.1-8.2c0.1-17.8,0.1-35.6,0-53.4
			c0-2.7-1-5.3-1.7-8.4c1.1,0.1,2.8,0.2,4.8,0.3c0-0.7,0-1.6,0-2.9c1.8-1.2,3.8-2.5,6.1-4c0,21.7,0,42.8,0,64.2c1.2,0,2.8,0,4,0
			C1168,1100.9,1168.2,1100.9,1172.5,1097.3z"/>
		<path class="hwlogo" d="M1485.6,972.4c2.1-0.5,4.1-1,6.6-1.5c0,2.9,0,5.3,0,8c-4,1.2-7.9,2.3-12.2,3.5c0,11.2,0,22.3,0,34c-2.6-1-4.7-1.8-7.3-2.8
			c-0.8,0.9-1.9,2.3-3.1,3.7c2.1-11.3-0.1-22.3,0.9-33.2c-4.1-4.4-3.6-8.8-0.5-12.7c0-6.7,0-13,0-19.5c3.6-2.1,7.7-4.5,12.5-7.3
			c3.1-0.5,7.2-1.1,11.3-1.8c0.4,3.6,0.8,7.5,1.3,12.3c-2.6-1.6-4.3-2.7-6.9-4.4c-2,0.3-4.9,0.8-7.8,1.3c-1.7,4.9,0.6,10-1.5,14.8
			c0.8,0.5,2.2,1.2,3.3,1.9c1.4,3.2,0.3,5.4-1.9,7.3c-1.9,1.6-2.6,1.6-6.5,0c0.9-1.9,1.8-3.7,3.3-6.6c-1.8,1.7-3.4,2.4-3.7,3.6
			c-0.5,1.6-0.6,3.8,0.2,5c0.6,0.9,3.3,1.6,4.4,1c2.8-1.5,5.3-3.7,7.9-5.7C1485.9,972.8,1485.7,972.6,1485.6,972.4z"/>
		<path class="hwlogo" d="M1342.1,1043.2c2.9,6,1,12.2-4.5,15.2c-3.5,1.9-7.1,3.5-10.8,5c-1.2,0.5-2.8,0.2-4.7,0.4c-1.3,0.6-3.1,1.6-5,2.5
			c0.4-3.3,1-6,1-8.7c0.1-17,0.1-33.9,0-50.9c0-2.8-0.9-5.6-1.5-8.6c1-0.1,2.7-0.2,4.8-0.3c0-0.8-0.1-1.7-0.1-3
			c1.7-1.3,3.7-2.8,6.1-4.6c0,21.2,0,41.9,0,62.8c1.3-0.2,2.7-0.5,4.1-0.7c1.1,0.7,2.2,1.3,3.1,1.9c5.3-1.2,6.1-2.2,5.9-7.2
			c-1,3.1-1.9,5.7-5.9,5c-2.3-2.2-1-4.4,0.4-6.5C1336.7,1043,1339,1041.9,1342.1,1043.2z"/>
		<path class="hwlogo" d="M1516,1007c-2.8-1.1-4.9-1.9-7.2-2.8c-0.7,1.3-1.6,3-2.6,4.7c-0.3-0.5-0.7-0.9-1-1.4c0.3-4.2,1-8.3,1-12.5
			c0.1-14.5,0-28.9,0-43.4c0-1.8,0-3.5,0-5.6c-2.9,0.3-4.4,1.4-5.6,3.4c-1,1.5-2.4,2.8-3.6,4.1c-0.3-0.2-0.7-0.3-1-0.5
			c0.5-3.8,0.9-7.6,1.3-10.7c4.3-2,8.3-3.9,12.3-5.7c0.9-0.4,1.9-0.6,2.9-0.6c3.9-0.1,7.8,0,12.2,0c0.4,2.8,0.9,6.5,1.4,10.1
			c-0.3,0.3-0.6,0.5-0.9,0.8c-1.4-0.9-2.7-1.8-4.1-2.5c-1.4-0.7-2.9-1.1-5.1-1.8C1516,964.3,1516,985.3,1516,1007z"/>
		<path class="hwlogo" d="M1344.6,998.8c0.3-5.1,0.6-9.1,0.9-13.1c4.4-1.9,8.8-3.9,14.6-6.4c3.4-0.5,8.2-1.1,13.1-1.8c0.3,3.3,0.7,7.2,1.1,11.1
			c-3.8,0.3-5.7-5-10-2.2c0,20.9,0,42.2,0,63.6c-1.7,0.1-3.1,0.2-4.5,0.3c-0.6-0.7-1.3-1.6-2.1-2.5c-1.5,1.7-2.8,3.2-4.2,4.8
			c-0.3-0.1-0.6-0.2-0.9-0.4c2.8-4.5,2.3-9.5,2.3-14.4c0-14.3,0-28.7,0-43c0-1.8,0-3.6,0-5.5
			C1351.2,990.5,1351.2,990.5,1344.6,998.8z"/>
		<path class="hwlogo" d="M1077,1119c-1.4-0.4-2.7-0.8-4.4-1.2c-0.4-0.7-1-1.7-1.7-2.9c-1.6,1.5-2.9,2.7-4.2,3.9c-0.3-0.1-0.6-0.3-0.9-0.4
			c3.3-5.3,2.2-11.1,2.3-16.8c0.1-13.8,0.1-27.6,0-41.4c0-3.7-0.9-7.3-1.4-11.1c0.9,0.1,2.3,0.3,4.1,0.5c0.2-0.8,0.4-1.9,0.7-3.2
			c1.6-0.8,3.3-1.6,5.5-2.7C1077,1069.2,1077,1094.1,1077,1119z"/>
	</g>
</g>
</svg>
